<svg width="58" height="18" viewBox="0 0 58 18" fill="none" xmlns="http://www.w3.org/2000/svg">
<path d="M7.512 9.324C7.616 9.324 7.696 9.372 7.752 9.468C7.816 9.564 7.848 9.696 7.848 9.864C7.848 10.184 7.772 10.432 7.62 10.608C7.26 11.048 6.896 11.4 6.528 11.664C6.16 11.928 5.724 12.06 5.22 12.06C4.604 12.06 4.108 11.884 3.732 11.532C3.356 11.18 3.168 10.712 3.168 10.128C3.168 9.816 3.328 9.592 3.648 9.456C4 9.304 4.252 9.144 4.404 8.976C4.556 8.8 4.632 8.588 4.632 8.34C4.632 8.196 4.6 8.088 4.536 8.016C4.48 7.944 4.408 7.908 4.32 7.908C4.104 7.908 3.864 8.064 3.6 8.376C3.344 8.688 3.104 9.092 2.88 9.588C2.656 10.076 2.48 10.58 2.352 11.1C2.264 11.476 2.16 11.732 2.04 11.868C1.928 11.996 1.748 12.06 1.5 12.06C1.252 12.06 1.068 11.972 0.948 11.796C0.836 11.612 0.76 11.332 0.72 10.956C0.68 10.58 0.66 10.028 0.66 9.3C0.66 8.068 0.784 6.784 1.032 5.448C1.288 4.112 1.66 2.992 2.148 2.088C2.644 1.176 3.236 0.719999 3.924 0.719999C4.292 0.719999 4.588 0.879999 4.812 1.2C5.044 1.512 5.16 1.92 5.16 2.424C5.16 3.232 4.924 4.072 4.452 4.944C3.98 5.808 3.212 6.82 2.148 7.98C2.124 8.396 2.112 8.824 2.112 9.264C2.496 8.264 2.936 7.54 3.432 7.092C3.928 6.636 4.392 6.408 4.824 6.408C5.224 6.408 5.544 6.544 5.784 6.816C6.032 7.088 6.156 7.424 6.156 7.824C6.156 8.264 6.044 8.668 5.82 9.036C5.596 9.404 5.212 9.732 4.668 10.02C4.7 10.236 4.796 10.412 4.956 10.548C5.124 10.676 5.324 10.74 5.556 10.74C5.804 10.74 6.044 10.644 6.276 10.452C6.508 10.26 6.812 9.94 7.188 9.492C7.284 9.38 7.392 9.324 7.512 9.324ZM3.672 1.908C3.528 1.908 3.368 2.116 3.192 2.532C3.016 2.94 2.844 3.496 2.676 4.2C2.516 4.896 2.384 5.656 2.28 6.48C2.776 5.896 3.184 5.26 3.504 4.572C3.832 3.884 3.996 3.26 3.996 2.7C3.996 2.444 3.968 2.248 3.912 2.112C3.856 1.976 3.776 1.908 3.672 1.908ZM8.10469 12.06C7.74469 12.06 7.44869 11.896 7.21669 11.568C6.99269 11.232 6.88069 10.816 6.88069 10.32C6.88069 9.72 6.92069 9.172 7.00069 8.676C7.08069 8.172 7.21269 7.64 7.39669 7.08C7.47669 6.84 7.58869 6.668 7.73269 6.564C7.87669 6.46 8.10469 6.408 8.41669 6.408C8.59269 6.408 8.71269 6.436 8.77669 6.492C8.84869 6.548 8.88469 6.632 8.88469 6.744C8.88469 6.808 8.84069 7.024 8.75269 7.392C8.67269 7.688 8.60869 7.956 8.56069 8.196C8.40069 9.036 8.32069 9.596 8.32069 9.876C8.32069 10.044 8.34069 10.164 8.38069 10.236C8.42069 10.3 8.48469 10.332 8.57269 10.332C8.69269 10.332 8.84069 10.212 9.01669 9.972C9.20069 9.732 9.39269 9.368 9.59269 8.88C9.80069 8.392 10.0007 7.792 10.1927 7.08C10.2567 6.84 10.3527 6.668 10.4807 6.564C10.6167 6.46 10.8167 6.408 11.0807 6.408C11.2647 6.408 11.3927 6.432 11.4647 6.48C11.5367 6.52 11.5727 6.6 11.5727 6.72C11.5727 6.92 11.4727 7.468 11.2727 8.364C11.0487 9.388 10.9367 10.02 10.9367 10.26C10.9367 10.412 10.9687 10.532 11.0327 10.62C11.0967 10.7 11.1807 10.74 11.2847 10.74C11.4447 10.74 11.6327 10.644 11.8487 10.452C12.0727 10.252 12.3687 9.932 12.7367 9.492C12.8327 9.38 12.9407 9.324 13.0607 9.324C13.1647 9.324 13.2447 9.372 13.3007 9.468C13.3647 9.564 13.3967 9.696 13.3967 9.864C13.3967 10.184 13.3207 10.432 13.1687 10.608C12.8247 11.032 12.4527 11.38 12.0527 11.652C11.6607 11.924 11.2127 12.06 10.7087 12.06C10.3247 12.06 10.0407 11.912 9.85669 11.616C9.68069 11.32 9.59269 10.904 9.59269 10.368C9.45669 10.912 9.25269 11.332 8.98069 11.628C8.70869 11.916 8.41669 12.06 8.10469 12.06ZM13.2757 12.06C12.9717 12.06 12.7557 11.9 12.6277 11.58C12.5077 11.26 12.4477 10.748 12.4477 10.044C12.4477 9.004 12.5957 8.016 12.8917 7.08C12.9637 6.848 13.0797 6.68 13.2397 6.576C13.4077 6.464 13.6397 6.408 13.9357 6.408C14.0957 6.408 14.2077 6.428 14.2717 6.468C14.3357 6.508 14.3677 6.584 14.3677 6.696C14.3677 6.824 14.3077 7.112 14.1877 7.56C14.1077 7.88 14.0437 8.16 13.9957 8.4C13.9477 8.632 13.9077 8.924 13.8757 9.276C14.0917 8.652 14.3477 8.124 14.6437 7.692C14.9477 7.26 15.2557 6.94 15.5677 6.732C15.8877 6.516 16.1877 6.408 16.4677 6.408C16.7477 6.408 16.9437 6.472 17.0557 6.6C17.1757 6.728 17.2357 6.924 17.2357 7.188C17.2357 7.444 17.1597 7.908 17.0077 8.58C16.9437 8.868 16.8997 9.084 16.8757 9.228C17.2757 8.244 17.7197 7.528 18.2077 7.08C18.6957 6.632 19.1517 6.408 19.5757 6.408C20.0957 6.408 20.3557 6.668 20.3557 7.188C20.3557 7.5 20.2677 8.064 20.0917 8.88C19.9397 9.576 19.8637 10.036 19.8637 10.26C19.8637 10.58 19.9797 10.74 20.2117 10.74C20.3717 10.74 20.5597 10.644 20.7757 10.452C20.9997 10.252 21.2957 9.932 21.6637 9.492C21.7597 9.38 21.8677 9.324 21.9877 9.324C22.0917 9.324 22.1717 9.372 22.2277 9.468C22.2917 9.564 22.3237 9.696 22.3237 9.864C22.3237 10.184 22.2477 10.432 22.0957 10.608C21.7517 11.032 21.3797 11.38 20.9797 11.652C20.5877 11.924 20.1397 12.06 19.6357 12.06C19.2277 12.06 18.9197 11.944 18.7117 11.712C18.5037 11.472 18.3997 11.128 18.3997 10.68C18.3997 10.456 18.4557 10.056 18.5677 9.48C18.6717 8.976 18.7237 8.628 18.7237 8.436C18.7237 8.308 18.6797 8.244 18.5917 8.244C18.4877 8.244 18.3397 8.38 18.1477 8.652C17.9557 8.916 17.7637 9.268 17.5717 9.708C17.3797 10.148 17.2237 10.612 17.1037 11.1C17.0157 11.484 16.9117 11.74 16.7917 11.868C16.6797 11.996 16.4957 12.06 16.2397 12.06C15.9757 12.06 15.7757 11.936 15.6397 11.688C15.5117 11.432 15.4477 11.124 15.4477 10.764C15.4477 10.46 15.4877 10.02 15.5677 9.444C15.6317 8.932 15.6637 8.596 15.6637 8.436C15.6637 8.308 15.6197 8.244 15.5317 8.244C15.4117 8.244 15.2597 8.388 15.0757 8.676C14.8917 8.964 14.7117 9.332 14.5357 9.78C14.3677 10.228 14.2317 10.668 14.1277 11.1C14.0397 11.476 13.9357 11.732 13.8157 11.868C13.7037 11.996 13.5237 12.06 13.2757 12.06ZM27.7613 9.324C27.8653 9.324 27.9453 9.372 28.0013 9.468C28.0653 9.564 28.0973 9.696 28.0973 9.864C28.0973 10.184 28.0213 10.432 27.8693 10.608C27.5253 11.032 27.1533 11.38 26.7533 11.652C26.3613 11.924 25.9133 12.06 25.4093 12.06C24.9853 12.06 24.6413 11.908 24.3773 11.604C23.9213 11.9 23.4453 12.052 22.9493 12.06C22.8453 13.604 22.6093 14.892 22.2413 15.924C21.8733 16.964 21.3333 17.484 20.6213 17.484C20.1893 17.484 19.8693 17.328 19.6613 17.016C19.4533 16.704 19.3493 16.272 19.3493 15.72C19.3493 14.936 19.5293 14.02 19.8893 12.972C20.2493 11.932 20.8053 10.784 21.5573 9.528C21.5573 8.36 21.5493 7.548 21.5333 7.092C21.5253 6.86 21.6173 6.676 21.8093 6.54C22.0013 6.404 22.2413 6.336 22.5293 6.336C22.6973 6.336 22.8173 6.372 22.8893 6.444C22.9693 6.508 23.0133 6.64 23.0213 6.84C23.0213 7.04 23.0253 7.188 23.0333 7.284C23.2893 6.964 23.5413 6.736 23.7893 6.6C24.0373 6.456 24.3013 6.384 24.5813 6.384C25.0293 6.384 25.3933 6.564 25.6733 6.924C25.9613 7.284 26.1053 7.756 26.1053 8.34C26.1053 8.764 26.0373 9.176 25.9013 9.576C25.7653 9.976 25.5773 10.34 25.3373 10.668C25.5053 10.716 25.6453 10.74 25.7573 10.74C26.0213 10.74 26.2733 10.644 26.5133 10.452C26.7533 10.26 27.0613 9.94 27.4373 9.492C27.5333 9.38 27.6413 9.324 27.7613 9.324ZM23.0093 10.908C23.2973 10.844 23.5613 10.688 23.8013 10.44C24.0493 10.184 24.2453 9.872 24.3893 9.504C24.5333 9.128 24.6053 8.736 24.6053 8.328C24.6053 8.088 24.5573 7.908 24.4613 7.788C24.3653 7.66 24.2373 7.596 24.0773 7.596C23.7893 7.596 23.4413 7.9 23.0333 8.508C23.0253 8.86 23.0213 9.376 23.0213 10.056C23.0213 10.424 23.0173 10.708 23.0093 10.908ZM20.7173 16.308C20.9333 16.308 21.1133 15.836 21.2573 14.892C21.4013 13.956 21.4933 12.788 21.5333 11.388C21.1893 12.188 20.9173 12.952 20.7173 13.68C20.5173 14.408 20.4173 15.02 20.4173 15.516C20.4173 15.772 20.4493 15.968 20.5133 16.104C20.5693 16.24 20.6373 16.308 20.7173 16.308ZM28.6067 12.06C28.1107 12.06 27.7147 11.88 27.4187 11.52C27.1227 11.16 26.9747 10.688 26.9747 10.104C26.9747 9.464 27.1227 8.86 27.4187 8.292C27.7147 7.716 28.1067 7.256 28.5947 6.912C29.0907 6.56 29.6147 6.384 30.1667 6.384C30.3427 6.384 30.4587 6.42 30.5147 6.492C30.5787 6.556 30.6307 6.676 30.6707 6.852C30.8387 6.82 31.0147 6.804 31.1987 6.804C31.5907 6.804 31.7867 6.944 31.7867 7.224C31.7867 7.392 31.7267 7.792 31.6067 8.424C31.4227 9.344 31.3307 9.984 31.3307 10.344C31.3307 10.464 31.3587 10.56 31.4147 10.632C31.4787 10.704 31.5587 10.74 31.6547 10.74C31.8067 10.74 31.9907 10.644 32.2067 10.452C32.4227 10.252 32.7147 9.932 33.0827 9.492C33.1787 9.38 33.2867 9.324 33.4067 9.324C33.5107 9.324 33.5907 9.372 33.6467 9.468C33.7107 9.564 33.7427 9.696 33.7427 9.864C33.7427 10.184 33.6667 10.432 33.5147 10.608C33.1867 11.016 32.8387 11.36 32.4707 11.64C32.1027 11.92 31.7467 12.06 31.4027 12.06C31.1387 12.06 30.8947 11.972 30.6707 11.796C30.4547 11.612 30.2907 11.364 30.1787 11.052C29.7627 11.724 29.2387 12.06 28.6067 12.06ZM29.0387 10.848C29.2147 10.848 29.3827 10.744 29.5427 10.536C29.7027 10.328 29.8187 10.052 29.8907 9.708L30.3347 7.5C29.9987 7.508 29.6867 7.636 29.3987 7.884C29.1187 8.124 28.8947 8.444 28.7267 8.844C28.5587 9.244 28.4747 9.668 28.4747 10.116C28.4747 10.364 28.5227 10.548 28.6187 10.668C28.7227 10.788 28.8627 10.848 29.0387 10.848ZM38.9114 9.348C39.0154 9.348 39.0954 9.4 39.1514 9.504C39.2154 9.6 39.2474 9.724 39.2474 9.876C39.2474 10.06 39.2194 10.204 39.1634 10.308C39.1074 10.412 39.0194 10.504 38.8994 10.584C38.2114 11.048 37.7074 11.392 37.3874 11.616L36.6194 12.132C36.3154 13.788 35.9154 15.088 35.4194 16.032C34.9314 16.984 34.3074 17.46 33.5474 17.46C33.1394 17.46 32.8074 17.332 32.5514 17.076C32.2954 16.828 32.1674 16.5 32.1674 16.092C32.1674 15.524 32.3914 14.912 32.8394 14.256C33.2874 13.608 34.1274 12.808 35.3594 11.856L35.4314 11.388C35.2954 11.604 35.1154 11.772 34.8914 11.892C34.6754 12.004 34.4594 12.06 34.2434 12.06C33.7474 12.06 33.3514 11.88 33.0554 11.52C32.7594 11.16 32.6114 10.688 32.6114 10.104C32.6114 9.464 32.7594 8.86 33.0554 8.292C33.3514 7.716 33.7434 7.256 34.2314 6.912C34.7274 6.56 35.2514 6.384 35.8034 6.384C35.9794 6.384 36.0954 6.42 36.1514 6.492C36.2154 6.556 36.2674 6.676 36.3074 6.852C36.4594 6.82 36.6354 6.804 36.8354 6.804C37.0354 6.804 37.1754 6.836 37.2554 6.9C37.3434 6.956 37.3874 7.072 37.3874 7.248C37.3874 7.344 37.3834 7.42 37.3754 7.476C37.3434 7.724 37.2434 8.352 37.0754 9.36C37.0434 9.552 37.0074 9.764 36.9674 9.996C36.9354 10.22 36.8994 10.46 36.8594 10.716C37.4754 10.236 38.0674 9.812 38.6354 9.444C38.7394 9.38 38.8314 9.348 38.9114 9.348ZM34.6754 10.848C34.8594 10.848 35.0354 10.736 35.2034 10.512C35.3714 10.288 35.4914 9.968 35.5634 9.552L35.9474 7.5C35.6194 7.508 35.3154 7.636 35.0354 7.884C34.7554 8.124 34.5314 8.444 34.3634 8.844C34.1954 9.244 34.1114 9.668 34.1114 10.116C34.1114 10.364 34.1594 10.548 34.2554 10.668C34.3594 10.788 34.4994 10.848 34.6754 10.848ZM33.6794 16.296C33.8794 16.296 34.1034 16.056 34.3514 15.576C34.6074 15.096 34.8514 14.332 35.0834 13.284C34.4674 13.812 34.0234 14.288 33.7514 14.712C33.4794 15.136 33.3434 15.508 33.3434 15.828C33.3434 15.964 33.3674 16.076 33.4154 16.164C33.4714 16.252 33.5594 16.296 33.6794 16.296ZM39.2327 12.06C38.9287 12.06 38.7127 11.9 38.5847 11.58C38.4647 11.26 38.4047 10.748 38.4047 10.044C38.4047 9.004 38.5527 8.016 38.8487 7.08C38.9207 6.848 39.0367 6.68 39.1967 6.576C39.3647 6.464 39.5967 6.408 39.8927 6.408C40.0527 6.408 40.1647 6.428 40.2287 6.468C40.2927 6.508 40.3247 6.584 40.3247 6.696C40.3247 6.824 40.2647 7.112 40.1447 7.56C40.0647 7.88 40.0007 8.16 39.9527 8.4C39.9047 8.64 39.8647 8.936 39.8327 9.288C40.0967 8.6 40.3927 8.04 40.7207 7.608C41.0487 7.176 41.3687 6.868 41.6807 6.684C42.0007 6.5 42.2927 6.408 42.5567 6.408C43.0767 6.408 43.3367 6.668 43.3367 7.188C43.3367 7.292 43.3007 7.544 43.2287 7.944C43.1647 8.264 43.1327 8.464 43.1327 8.544C43.1327 8.824 43.2327 8.964 43.4327 8.964C43.6567 8.964 43.9447 8.788 44.2967 8.436C44.4007 8.332 44.5087 8.28 44.6207 8.28C44.7247 8.28 44.8047 8.328 44.8607 8.424C44.9247 8.512 44.9567 8.632 44.9567 8.784C44.9567 9.08 44.8767 9.312 44.7167 9.48C44.4927 9.712 44.2287 9.912 43.9247 10.08C43.6287 10.24 43.3127 10.32 42.9767 10.32C42.5527 10.32 42.2287 10.212 42.0047 9.996C41.7887 9.78 41.6807 9.488 41.6807 9.12C41.6807 9 41.6927 8.88 41.7167 8.76C41.7327 8.6 41.7407 8.492 41.7407 8.436C41.7407 8.308 41.6967 8.244 41.6087 8.244C41.4887 8.244 41.3287 8.38 41.1287 8.652C40.9367 8.916 40.7447 9.268 40.5527 9.708C40.3607 10.148 40.2047 10.612 40.0847 11.1C39.9967 11.476 39.8927 11.732 39.7727 11.868C39.6607 11.996 39.4807 12.06 39.2327 12.06ZM45.3176 12.06C44.8216 12.06 44.4256 11.88 44.1296 11.52C43.8336 11.16 43.6856 10.688 43.6856 10.104C43.6856 9.464 43.8336 8.86 44.1296 8.292C44.4256 7.716 44.8176 7.256 45.3056 6.912C45.8016 6.56 46.3256 6.384 46.8776 6.384C47.0536 6.384 47.1696 6.42 47.2256 6.492C47.2896 6.556 47.3416 6.676 47.3816 6.852C47.5496 6.82 47.7256 6.804 47.9096 6.804C48.3016 6.804 48.4976 6.944 48.4976 7.224C48.4976 7.392 48.4376 7.792 48.3176 8.424C48.1336 9.344 48.0416 9.984 48.0416 10.344C48.0416 10.464 48.0696 10.56 48.1256 10.632C48.1896 10.704 48.2696 10.74 48.3656 10.74C48.5176 10.74 48.7016 10.644 48.9176 10.452C49.1336 10.252 49.4256 9.932 49.7936 9.492C49.8896 9.38 49.9976 9.324 50.1176 9.324C50.2216 9.324 50.3016 9.372 50.3576 9.468C50.4216 9.564 50.4536 9.696 50.4536 9.864C50.4536 10.184 50.3776 10.432 50.2256 10.608C49.8976 11.016 49.5496 11.36 49.1816 11.64C48.8136 11.92 48.4576 12.06 48.1136 12.06C47.8496 12.06 47.6056 11.972 47.3816 11.796C47.1656 11.612 47.0016 11.364 46.8896 11.052C46.4736 11.724 45.9496 12.06 45.3176 12.06ZM45.7496 10.848C45.9256 10.848 46.0936 10.744 46.2536 10.536C46.4136 10.328 46.5296 10.052 46.6016 9.708L47.0456 7.5C46.7096 7.508 46.3976 7.636 46.1096 7.884C45.8296 8.124 45.6056 8.444 45.4376 8.844C45.2696 9.244 45.1856 9.668 45.1856 10.116C45.1856 10.364 45.2336 10.548 45.3296 10.668C45.4336 10.788 45.5736 10.848 45.7496 10.848ZM50.3303 12.06C50.0263 12.06 49.8103 11.9 49.6823 11.58C49.5623 11.26 49.5023 10.748 49.5023 10.044C49.5023 9.004 49.6503 8.016 49.9463 7.08C50.0183 6.848 50.1343 6.68 50.2943 6.576C50.4623 6.464 50.6943 6.408 50.9903 6.408C51.1503 6.408 51.2623 6.428 51.3263 6.468C51.3903 6.508 51.4223 6.584 51.4223 6.696C51.4223 6.824 51.3623 7.112 51.2423 7.56C51.1623 7.88 51.0983 8.16 51.0503 8.4C51.0023 8.632 50.9623 8.924 50.9303 9.276C51.1463 8.652 51.4023 8.124 51.6983 7.692C52.0023 7.26 52.3103 6.94 52.6223 6.732C52.9423 6.516 53.2423 6.408 53.5223 6.408C53.8023 6.408 53.9983 6.472 54.1103 6.6C54.2303 6.728 54.2903 6.924 54.2903 7.188C54.2903 7.444 54.2143 7.908 54.0623 8.58C53.9983 8.868 53.9543 9.084 53.9303 9.228C54.1943 8.556 54.4863 8.008 54.8063 7.584C55.1343 7.16 55.4543 6.86 55.7663 6.684C56.0783 6.5 56.3663 6.408 56.6303 6.408C56.8863 6.408 57.0783 6.476 57.2063 6.612C57.3423 6.74 57.4103 6.932 57.4103 7.188C57.4103 7.396 57.3663 7.788 57.2783 8.364C57.1983 8.852 57.1343 9.316 57.0863 9.756C57.0383 10.188 57.0143 10.672 57.0143 11.208C57.0143 11.512 56.9503 11.732 56.8223 11.868C56.7023 11.996 56.5023 12.06 56.2223 12.06C55.9583 12.06 55.7663 11.992 55.6463 11.856C55.5263 11.72 55.4663 11.516 55.4663 11.244C55.4663 10.924 55.5223 10.396 55.6343 9.66C55.7303 9.02 55.7783 8.612 55.7783 8.436C55.7783 8.308 55.7343 8.244 55.6463 8.244C55.5423 8.244 55.3943 8.38 55.2023 8.652C55.0103 8.916 54.8183 9.268 54.6263 9.708C54.4343 10.148 54.2783 10.612 54.1583 11.1C54.0703 11.484 53.9663 11.74 53.8463 11.868C53.7343 11.996 53.5503 12.06 53.2943 12.06C53.0303 12.06 52.8303 11.936 52.6943 11.688C52.5663 11.432 52.5023 11.124 52.5023 10.764C52.5023 10.46 52.5423 10.02 52.6223 9.444C52.6863 8.932 52.7183 8.596 52.7183 8.436C52.7183 8.308 52.6743 8.244 52.5863 8.244C52.4663 8.244 52.3143 8.388 52.1303 8.676C51.9463 8.964 51.7663 9.332 51.5903 9.78C51.4223 10.228 51.2863 10.668 51.1823 11.1C51.0943 11.476 50.9903 11.732 50.8703 11.868C50.7583 11.996 50.5783 12.06 50.3303 12.06Z" fill="black"/>
</svg>
